<svg width="18" height="24" viewBox="0 0 18 24" fill="none" xmlns="http://www.w3.org/2000/svg">
<path d="M8.9996 0C4.40727 0 0.671204 3.73661 0.671204 8.32907C0.671204 12.7497 8.2277 23.0779 8.54945 23.5152L8.84974 23.9239C8.88485 23.9719 8.94077 24 8.9996 24C9.05934 24 9.1149 23.9719 9.15038 23.9239L9.45048 23.5152C9.77241 23.0779 17.3287 12.7497 17.3287 8.32907C17.3287 3.73661 13.5921 0 8.9996 0ZM8.9996 5.34561C10.645 5.34561 11.9831 6.68368 11.9831 8.32907C11.9831 9.97361 10.645 11.3125 8.9996 11.3125C7.35513 11.3125 6.01615 9.97361 6.01615 8.32907C6.01615 6.68368 7.35506 5.34561 8.9996 5.34561Z" fill="#FF4359"/>
</svg>
